<?xml version="1.0" encoding="UTF-8"?>
<svg width="40px" height="40px" viewBox="0 0 40 40" version="1.1" xmlns="http://www.w3.org/2000/svg" xmlns:xlink="http://www.w3.org/1999/xlink">
    <!-- Generator: Sketch 64 (93537) - https://sketch.com -->
    <title>Combined Shape</title>
    <desc>Created with Sketch.</desc>
    <g id="Main-Feature-Pages" stroke="none" stroke-width="1" fill="none" fill-rule="evenodd">
        <g id="[Mobile]-Overview" transform="translate(-97.000000, -895.000000)" fill="#FFFFFF">
            <g id="Group-11-Copy" transform="translate(60.000000, 895.000000)">
                <g id="Group-13" transform="translate(37.000000, 0.000000)">
                    <path d="M19.7368421,0 C30.637199,0 39.4736842,8.8364852 39.4736842,19.7368421 C39.4736842,30.637199 30.637199,39.4736842 19.7368421,39.4736842 C8.8364852,39.4736842 0,30.637199 0,19.7368421 C0,8.8364852 8.8364852,0 19.7368421,0 Z M22.5358852,11.8421053 L17.8708134,11.8421053 C17.3555238,11.8421053 16.937799,12.2579399 16.937799,12.7708978 L16.937799,12.7708978 L10.4066986,12.7708978 C9.89140897,12.7708978 9.47368421,13.1867324 9.47368421,13.6996904 L9.47368421,13.6996904 L9.47368421,25.7739938 C9.47368421,26.2869518 9.89140897,26.7027864 10.4066986,26.7027864 L10.4066986,26.7027864 L17.57563,26.7036624 C18.4620149,27.2899817 19.5258622,27.6315789 20.6698565,27.6315789 C21.813653,27.6315789 22.8773303,27.2900998 23.7636233,26.7039664 L23.7636233,26.7039664 L29.0669856,26.7027864 C29.5822752,26.7027864 30,26.2869518 30,25.7739938 L30,25.7739938 L30,13.6996904 C30,13.1867324 29.5822752,12.7708978 29.0669856,12.7708978 L29.0669856,12.7708978 L23.4688995,12.7708978 C23.4688995,12.2579399 23.0511748,11.8421053 22.5358852,11.8421053 L22.5358852,11.8421053 Z M20.6698565,18.3436533 C22.7310149,18.3436533 24.4019139,20.0069916 24.4019139,22.0588235 C24.4019139,24.1106554 22.7310149,25.7739938 20.6698565,25.7739938 C18.6086981,25.7739938 16.937799,24.1106554 16.937799,22.0588235 C16.937799,20.0069916 18.6086981,18.3436533 20.6698565,18.3436533 Z M21.6028708,13.6996904 L21.6028708,14.628483 L28.1339713,14.628483 L28.1339713,24.8452012 L25.518694,24.8457594 C25.995208,24.0259551 26.2679426,23.0740955 26.2679426,22.0588235 C26.2679426,18.9810757 23.7615941,16.4860681 20.6698565,16.4860681 C17.5781189,16.4860681 15.0717703,18.9810757 15.0717703,22.0588235 C15.0717703,23.0740955 15.3445049,24.0259551 15.8210189,24.8457594 L15.8210189,24.8457594 L11.3397129,24.8452012 L11.3397129,14.628483 L18.8038278,14.628483 L18.8038278,13.6996904 L21.6028708,13.6996904 Z M14.138756,15.5572755 C13.6234664,15.5572755 13.2057416,15.9731101 13.2057416,16.4860681 C13.2057416,16.9990261 13.6234664,17.4148607 14.138756,17.4148607 C14.6540456,17.4148607 15.0717703,16.9990261 15.0717703,16.4860681 C15.0717703,15.9731101 14.6540456,15.5572755 14.138756,15.5572755 Z" id="Combined-Shape" stroke="#F95E86" stroke-width="0.5"></path>
                </g>
            </g>
        </g>
    </g>
</svg>
