<?xml version="1.0" encoding="UTF-8"?>
<svg width="60px" height="60px" viewBox="0 0 60 60" version="1.1" xmlns="http://www.w3.org/2000/svg" xmlns:xlink="http://www.w3.org/1999/xlink">
    <!-- Generator: Sketch 64 (93537) - https://sketch.com -->
    <title>Group 3</title>
    <desc>Created with Sketch.</desc>
    <g id="Main-Feature-Pages" stroke="none" stroke-width="1" fill="none" fill-rule="evenodd">
        <g id="overview" transform="translate(-327.000000, -1277.000000)">
            <g id="Group-17-Copy" transform="translate(302.000000, 1252.000000)">
                <g id="Group-3" transform="translate(25.000000, 25.000000)">
                    <circle id="Oval" fill="#FEEBEF" cx="30" cy="30" r="30"></circle>
                    <g id="Speech-Bubble" transform="translate(13.714286, 16.285714)" fill="#FA3C66" fill-rule="nonzero">
                        <path d="M30.8571429,0 L3.42857143,0 C1.48571429,0 0,1.48571429 0,3.42857143 L0,19.4285714 C0,21.2571429 1.48571429,22.8571429 3.42857143,22.8571429 L21.7142857,22.8571429 L29.7142857,30.8571429 L29.7142857,22.8571429 L30.8571429,22.8571429 C32.8,22.8571429 34.2857143,21.2571429 34.2857143,19.4285714 L34.2857143,3.42857143 C34.2857143,1.48571429 32.8,0 30.8571429,0 Z M25.7142857,8 C27.3142857,8 28.5714286,9.25714286 28.5714286,10.8571429 C28.5714286,12.4571429 27.3142857,13.7142857 25.7142857,13.7142857 C24.1142857,13.7142857 22.8571429,12.4571429 22.8571429,10.8571429 C22.8571429,9.25714286 24.1142857,8 25.7142857,8 Z M7.42857143,13.7142857 C5.82857143,13.7142857 4.57142857,12.4571429 4.57142857,10.8571429 C4.57142857,9.25714286 5.82857143,8 7.42857143,8 C9.02857143,8 10.2857143,9.25714286 10.2857143,10.8571429 C10.2857143,12.4571429 9.02857143,13.7142857 7.42857143,13.7142857 Z M16.5714286,13.7142857 C14.9714286,13.7142857 13.7142857,12.4571429 13.7142857,10.8571429 C13.7142857,9.25714286 14.9714286,8 16.5714286,8 C18.1714286,8 19.4285714,9.25714286 19.4285714,10.8571429 C19.4285714,12.4571429 18.1714286,13.7142857 16.5714286,13.7142857 Z" id="Shape"></path>
                    </g>
                </g>
            </g>
        </g>
    </g>
</svg>