<?xml version="1.0" encoding="UTF-8"?>
<svg width="504px" height="650px" viewBox="0 0 504 650" version="1.1" xmlns="http://www.w3.org/2000/svg" xmlns:xlink="http://www.w3.org/1999/xlink">
    <!-- Generator: Sketch 64 (93537) - https://sketch.com -->
    <title>Group 17</title>
    <desc>Created with Sketch.</desc>
    <defs>
        <rect id="path-1" x="0" y="0" width="350" height="520" rx="6"></rect>
        <filter x="-23.6%" y="-15.3%" width="147.1%" height="131.7%" filterUnits="objectBoundingBox" id="filter-2">
            <feOffset dx="0" dy="3" in="SourceAlpha" result="shadowOffsetOuter1"></feOffset>
            <feGaussianBlur stdDeviation="27" in="shadowOffsetOuter1" result="shadowBlurOuter1"></feGaussianBlur>
            <feColorMatrix values="0 0 0 0 0   0 0 0 0 0.329411765   0 0 0 0 0.549019608  0 0 0 0.1 0" type="matrix" in="shadowBlurOuter1" result="shadowMatrixOuter1"></feColorMatrix>
            <feOffset dx="0" dy="10" in="SourceAlpha" result="shadowOffsetOuter2"></feOffset>
            <feGaussianBlur stdDeviation="6" in="shadowOffsetOuter2" result="shadowBlurOuter2"></feGaussianBlur>
            <feColorMatrix values="0 0 0 0 0.345098039   0 0 0 0 0.62745098   0 0 0 0 0.811764706  0 0 0 0.1 0" type="matrix" in="shadowBlurOuter2" result="shadowMatrixOuter2"></feColorMatrix>
            <feMerge>
                <feMergeNode in="shadowMatrixOuter1"></feMergeNode>
                <feMergeNode in="shadowMatrixOuter2"></feMergeNode>
            </feMerge>
        </filter>
        <path d="M0,0 L351,0 L351,471 C351,474.313708 348.313708,477 345,477 L6,477 C2.6862915,477 4.05812251e-16,474.313708 0,471 L0,0 L0,0 Z" id="path-3"></path>
    </defs>
    <g id="Main-Feature-Pages" stroke="none" stroke-width="1" fill="none" fill-rule="evenodd">
        <g id="overview" transform="translate(-128.000000, -1632.000000)">
            <g id="Group-17" transform="translate(128.000000, 1632.000000)">
                <rect id="Rectangle" fill="#E5F2FD" x="0" y="0" width="504" height="650" rx="6"></rect>
                <g id="Group-35" transform="translate(77.000000, 67.000000)">
                    <g id="Group-31" transform="translate(0.500000, 0.000000)">
                        <g id="Rectangle">
                            <use fill="black" fill-opacity="1" filter="url(#filter-2)" xlink:href="#path-1"></use>
                            <use fill="#FFFFFF" fill-rule="evenodd" xlink:href="#path-1"></use>
                        </g>
                        <rect id="Rectangle" fill="#D8D8D8" x="29.5" y="468" width="125" height="8"></rect>
                        <rect id="Rectangle" fill="#D8D8D8" x="29.5" y="486" width="55" height="8"></rect>
                        <rect id="Rectangle-Copy-30" fill="#D8D8D8" x="194.5" y="468" width="125" height="8"></rect>
                        <circle id="Oval" fill="#D8D8D8" cx="43.5" cy="445" r="14"></circle>
                        <circle id="Oval-Copy" fill="#D8D8D8" cx="208.5" cy="445" r="14"></circle>
                        <rect id="Rectangle-Copy-30" fill="#D8D8D8" x="194.5" y="486" width="95" height="8"></rect>
                        <rect id="Rectangle" fill="#D8D8D8" opacity="0.699999988" x="29.5" y="253" width="290" height="143"></rect>
                        <rect id="Rectangle" fill="#FFFFFF" x="57.5" y="350" width="63" height="22"></rect>
                        <rect id="Rectangle-Copy-23" fill="#FFFFFF" x="143.5" y="350" width="63" height="22"></rect>
                        <rect id="Rectangle-Copy-24" fill="#FFFFFF" x="229.5" y="350" width="63" height="22"></rect>
                        <line x1="243" y1="361.5" x2="279" y2="361.5" id="Line-8" stroke="#6FFF8C" stroke-width="5" stroke-linecap="square"></line>
                        <line x1="157" y1="361.5" x2="193" y2="361.5" id="Line-8" stroke="#6FFF8C" stroke-width="5" stroke-linecap="square"></line>
                        <line x1="71" y1="361.5" x2="107" y2="361.5" id="Line-8" stroke="#6FFF8C" stroke-width="5" stroke-linecap="square"></line>
                        <rect id="Rectangle" fill="#D8D8D8" x="29.5" y="122" width="150" height="12"></rect>
                        <rect id="Rectangle" fill="#D8D8D8" x="283.5" y="69" width="36" height="13"></rect>
                        <rect id="Rectangle-Copy-20" fill="#D8D8D8" x="237.5" y="69" width="36" height="13"></rect>
                        <rect id="Rectangle-Copy-21" fill="#D8D8D8" x="191.5" y="69" width="36" height="13"></rect>
                        <rect id="Rectangle-Copy-22" fill="#D8D8D8" x="145.5" y="69" width="36" height="13"></rect>
                        <circle id="Oval" fill="#D8D8D8" cx="42.5" cy="75" r="13"></circle>
                        <rect id="Rectangle-Copy-18" fill="#D8D8D8" x="29.5" y="145" width="108" height="12"></rect>
                        <rect id="Rectangle-Copy-19" fill="#6FFF8C" x="29.5" y="173" width="83" height="22"></rect>
                        <rect id="Rectangle" fill="#D8D8D8" x="218.5" y="114" width="101" height="107"></rect>
                        <g id="Group-36" transform="translate(24.000000, 15.000000)" font-family="ProximaNova-Semibold, Proxima Nova" font-size="14" font-weight="500">
                            <text id="Heatmap" fill="#0086E6">
                                <tspan x="0" y="13">Heatmap</tspan>
                            </text>
                            <text id="Scrollmap" fill="#0A1C2E">
                                <tspan x="73" y="13">Scrollmap</tspan>
                            </text>
                            <text id="Confetti" fill="#0A1C2E">
                                <tspan x="151" y="13">Confetti</tspan>
                            </text>
                            <text id="Overlay" fill="#0A1C2E">
                                <tspan x="216" y="13">Overlay</tspan>
                            </text>
                            <text id="List" fill="#0A1C2E">
                                <tspan x="280" y="13">List</tspan>
                            </text>
                        </g>
                        <rect id="Rectangle" fill="#C6C6C6" x="57.5" y="275" width="63" height="40"></rect>
                        <rect id="Rectangle" fill="#AAAAAA" x="57.5" y="325" width="63" height="5"></rect>
                        <rect id="Rectangle-Copy-26" fill="#AAAAAA" x="143.5" y="325" width="63" height="5"></rect>
                        <rect id="Rectangle-Copy-28" fill="#AAAAAA" x="229.5" y="325" width="63" height="5"></rect>
                        <rect id="Rectangle" fill="#AAAAAA" x="57.5" y="335" width="38" height="5"></rect>
                        <rect id="Rectangle-Copy-27" fill="#AAAAAA" x="143.5" y="335" width="38" height="5"></rect>
                        <rect id="Rectangle-Copy-29" fill="#AAAAAA" x="229.5" y="335" width="38" height="5"></rect>
                        <rect id="Rectangle-Copy-25" fill="#C6C6C6" x="143.5" y="275" width="63" height="40"></rect>
                        <rect id="Rectangle-Copy-25" fill="#C6C6C6" x="229.5" y="275" width="63" height="40"></rect>
                    </g>
                    <g id="Group-32" transform="translate(0.000000, 43.000000)">
                        <mask id="mask-4" fill="white">
                            <use xlink:href="#path-3"></use>
                        </mask>
                        <use id="Rectangle" fill="#032344" opacity="0.400000006" xlink:href="#path-3"></use>
                        <path d="M306.5,-18 C328.867532,-18 347,0.132467633 347,22.5 C347,44.8675324 328.867532,63 306.5,63 C302.136117,63 297.933435,62.3098126 293.99516,61.0326423 C279.561359,57.7513515 260.569069,50.5888951 229.1,49.5 C196.907579,48.3860754 185.937013,52.0166977 175.120449,55.5711434 C172.076336,56.8772381 168.722573,57.6 165.2,57.6 C151.282424,57.6 140,46.3175757 140,32.4 C140,18.4824243 151.282424,7.2 165.2,7.2 C167.326116,7.2 169.390736,7.46329908 171.363031,7.95906896 C182.158524,9.83159506 201.968375,15.3922177 223.184082,13.0517578 C237.486088,11.4739989 257.809816,3.36240857 284.155265,-11.2830131 C290.559626,-15.5279169 298.24112,-18 306.5,-18 Z" id="Combined-Shape" fill="#0036E6" opacity="0.600000024" mask="url(#mask-4)"></path>
                        <circle id="Oval" fill="#0036E6" opacity="0.699999988" mask="url(#mask-4)" cx="249" cy="130" r="66"></circle>
                        <circle id="Oval-Copy-19" fill="#0036E6" opacity="0.699999988" mask="url(#mask-4)" cx="114" cy="153" r="43"></circle>
                        <g id="Group-37" mask="url(#mask-4)">
                            <g transform="translate(78.500000, 148.500000) rotate(-60.000000) translate(-78.500000, -148.500000) translate(38.000000, 101.000000)">
                                <path d="M2.67511894,35.7145403 C8.59706059,25.5369544 21.1610163,21.5412409 31.7749662,26.0189848 C41.1367963,28.2982707 46.4189807,29.6060507 47.6223087,29.9432526 C48.892625,30.2992262 52.3376276,30.3236305 57.9573164,30.0164653 C62.5216673,28.8747353 67.5201537,29.426144 71.9178437,31.9455274 C80.8887025,37.0850711 83.962364,48.4677457 78.7830979,57.369589 C74.4128001,64.8806626 65.5631383,68.2255284 57.5155843,65.9999248 C48.870966,65.6501804 43.8548121,65.6742401 42.4665219,66.0711823 C41.1227935,66.4553832 37.3585601,67.2979906 31.1738216,68.5990044 C24.8396719,71.0689247 17.4769263,70.7584195 11.1305657,67.1226662 C0.0589361979,60.7795587 -3.7266236,46.717772 2.67511894,35.7145403 Z" id="Combined-Shape" fill="#FF5600" transform="translate(40.430166, 47.199649) rotate(60.000000) translate(-40.430166, -47.199649) "></path>
                                <path d="M15.0971923,37.8757401 C20.3482531,28.7906964 31.9740384,25.675575 41.0641137,30.9179208 C41.2998913,31.0538964 41.531647,31.1941591 41.7593393,31.3385537 C44.2830585,32.2244696 46.5163537,32.8345597 48.4597513,33.170547 C50.8105149,33.5769625 52.9597074,33.7988917 54.9073289,33.8363346 C57.9252888,33.2054015 61.1775844,33.6401421 64.0578078,35.3011984 C70.2773315,38.8880692 72.4066882,46.8349326 68.8138598,53.0510166 C66.1015087,57.74375 60.9033393,60.1085173 55.8424582,59.4424589 L55.8437259,59.4790286 C52.262284,59.6866226 49.8009591,59.982884 48.4597513,60.3678127 C47.4178401,60.6668427 45.3121388,61.5911582 42.1426473,63.1407592 C36.3108455,67.0439662 28.5341464,67.5582146 22.0483452,63.8177821 C12.9582721,58.5754325 9.84613534,46.960786 15.0971923,37.8757401 Z" id="Combined-Shape" fill="#FFA600" transform="translate(41.552576, 47.592002) rotate(60.000000) translate(-41.552576, -47.592002) "></path>
                                <path d="M38.7320508,23.2057714 C46.7401797,23.2057714 53.2320508,29.7028485 53.2320508,37.7173993 C53.2320508,40.2049114 52.6066738,42.5462418 51.504686,44.5925048 L50.6140902,48.1476318 L50.6140902,51.6226086 L50.4960549,51.637259 C50.5074987,51.8330519 50.5133008,52.0303614 50.5133008,52.2290272 C50.5133008,57.7390308 46.0501394,62.2057714 40.5445508,62.2057714 C35.389321,62.2057714 31.148066,58.2894414 30.6291421,53.2673895 L29.5687614,50.4965599 L27.9311149,47.3995415 C25.6309787,44.8312391 24.2320508,41.4378188 24.2320508,37.7173993 C24.2320508,29.7028485 30.7239219,23.2057714 38.7320508,23.2057714 Z" id="Combined-Shape" fill="#FFEA00" transform="translate(38.732051, 42.705771) rotate(-30.000000) translate(-38.732051, -42.705771) "></path>
                                <circle id="Oval" fill="#FFFFFF" cx="37.1195462" cy="40.589746" r="8"></circle>
                                <circle id="Oval-Copy-16" fill="#FFFFFF" cx="42.8743557" cy="45.4330127" r="5"></circle>
                            </g>
                        </g>
                        <g id="Group-30" mask="url(#mask-4)">
                            <g transform="translate(199.000000, 84.000000)">
                                <path d="M49.375,91.9143983 C76.6440595,91.9143983 106.504985,73.6581549 106.504985,46.3890953 C106.504985,19.1200358 83.5190595,3.33955086e-13 56.25,3.33955086e-13 C28.9809405,3.33955086e-13 9.23705556e-14,20.8043993 9.23705556e-14,48.0734588 C9.23705556e-14,75.3425183 22.1059405,91.9143983 49.375,91.9143983 Z" id="Oval-Copy-2" stroke="none" fill="#FF5600" fill-rule="evenodd"></path>
                                <path d="M44.375,82.4484588 C63.3597883,82.4484588 101.538028,60.1832471 101.538028,41.1984588 C101.538028,22.2136705 77.1097883,13.6683505 58.125,13.6683505 C39.1402117,13.6683505 10,29.0886705 10,48.0734588 C10,67.0582471 25.3902117,82.4484588 44.375,82.4484588 Z" id="Oval-Copy-2" stroke="none" fill="#FFA600" fill-rule="evenodd"></path>
                                <path d="M49.375,67.4484588 C60.075517,67.4484588 87.0971602,50.5637185 87.0971602,39.8632015 C87.0971602,29.1626844 66.950517,20.2982138 56.25,20.2982138 C45.549483,20.2982138 30,37.3729418 30,48.0734588 C30,58.7739758 38.674483,67.4484588 49.375,67.4484588 Z" id="Oval" stroke="none" fill="#FFEA00" fill-rule="evenodd"></path>
                                <line x1="46.25" y1="48.75" x2="58.75" y2="40" id="Line-9" stroke="#FFFFFF" stroke-width="17.5" fill="none" stroke-linecap="round"></line>
                            </g>
                        </g>
                        <g id="Group-33" mask="url(#mask-4)">
                            <g transform="translate(146.791016, 20.000000)" id="Oval">
                                <ellipse fill="#0AD75F" cx="16.7089844" cy="13" rx="16.5" ry="13"></ellipse>
                                <path d="M19.1819296,18.1997945 C23.1489356,18.1997945 29.3441088,15.866307 29.3441088,12.5 C29.3441088,9.13369295 21.8899674,7.69720762 17.9229615,7.69720762 C13.9559556,7.69720762 7.60449219,9.56226438 7.60449219,12.9285714 C7.60449219,16.2948785 15.2149237,18.1997945 19.1819296,18.1997945 Z" fill="#FFED00"></path>
                            </g>
                        </g>
                        <g id="Group-34" mask="url(#mask-4)">
                            <g transform="translate(130.000000, 206.000000)">
                                <path d="M46.5,0 C72.1812409,0 93,20.8187591 93,46.5 C93,47.3974918 92.9745737,48.2890449 92.924402,49.1739784 C93.7602426,57.9834241 94.7515566,64.2585712 95.8974479,68 C96.7412182,70.7549789 98.5932069,74.7174906 101.453414,79.8875351 C107.383408,86.3781535 111,95.0167266 111,104.5 C111,124.658393 94.6583934,141 74.5,141 C59.545716,141 46.691906,132.006802 41.0518623,119.133697 L41,119.15552 C40.9746137,119.04859 40.9492253,118.941996 40.9238348,118.83574 C39.6055941,115.754602 38.6998155,112.454223 38.2752546,109.004904 C36.5273812,103.327217 34.768524,99.2338546 33,96.7240904 C30.9318553,93.7891258 27.0585887,90.0936883 21.3802003,85.637778 C19.4398478,84.3898503 17.5992897,83.0023017 15.8717854,81.4888698 L15.7780778,81.4190872 L15.7881409,81.4154144 C6.10793307,72.893966 0,60.4102751 0,46.5 C0,20.8187591 20.8187591,0 46.5,0 Z" id="Combined-Shape" fill="#0036E6" opacity="0.800000012"></path>
                                <path d="M52.8455882,19 C71.9200551,19 87.5147721,33.8759497 88.6276471,52.6424691 L88.6440537,52.63418 C89.0093894,56.0406034 89.4613715,58.8057726 90,60.9296875 C90.5374945,63.049131 91.53442,65.7798706 92.9907764,69.1219061 C94.9171593,73.0022369 96,77.3746629 96,82 C96,98.0162577 83.0162577,111 67,111 C54.8265055,111 44.4049197,103.499187 40.1048182,92.867138 C38.4098483,90.4501545 36.8466141,88.5528226 35.4156979,87.1745652 C34.4683004,86.2620327 33.1667254,85.0550314 31.510973,83.5535614 C22.7058336,77.0331942 17,66.577489 17,54.7911392 C17,35.0242389 33.0486165,19 52.8455882,19 Z" id="Combined-Shape" fill="#FF5600"></path>
                                <path d="M54.5,26 C71.7938193,26 85.9327981,39.5074776 86.9423363,56.5478326 L86.9572754,56.5413818 L86.9590396,56.8539708 C86.9862384,57.3992167 87,57.9480013 87,58.5 C87,58.5203893 86.9999812,58.5407742 86.9999437,58.5611547 C87.0943682,60.8890817 87.3542287,63.4941547 87.7784424,66.3751221 C88.0644917,68.3177723 88.3463351,69.9326867 88.6239724,71.2198654 C89.5161892,73.8147097 90,76.6008548 90,79.5 C90,93.5832611 78.5832611,105 64.5,105 C55.226424,105 47.1090487,100.049716 42.6462099,92.6474853 C41.2252205,90.6548885 39.9087249,89.0746447 38.6968994,87.9056396 C37.8390916,87.0781429 36.6610341,85.9839804 35.1627268,84.6231521 C27.1757536,78.7013309 22,69.2050964 22,58.5 C22,40.5507456 36.5507456,26 54.5,26 Z" id="Combined-Shape" fill="#FFA600"></path>
                                <path d="M60,36 C71.5979797,36 81,45.4020203 81,57 C81,62.3265436 79.016887,67.1899063 75.7487123,70.8920369 L73.0192871,74.7028809 L71.3808577,78.8150079 C69.7868784,83.5721571 65.293747,87 60,87 C54.4334036,87 49.7520801,83.2096963 48.3960651,78.0691246 L46.5,74.3215332 L43.9364256,70.5270545 C40.8561803,66.8729808 39,62.1532574 39,57 C39,45.4020203 48.4020203,36 60,36 Z" id="Combined-Shape" fill="#FFEA00"></path>
                                <circle id="Oval" fill="#FFFFFF" cx="61.5" cy="55.5" r="10.5"></circle>
                                <circle id="Oval-Copy-16" fill="#FFFFFF" cx="61.5" cy="61.5" r="8.5"></circle>
                            </g>
                        </g>
                        <path d="M112,332 C121.388841,332 129,324.388841 129,315 C129,305.611159 121.388841,298 112,298 C102.611159,298 90.3608952,305.611159 90.3608952,315 C90.3608952,324.388841 102.611159,332 112,332 Z" id="Oval" fill="#0036E6" opacity="0.600000024" mask="url(#mask-4)"></path>
                        <circle id="Oval" fill="#0AD75F" mask="url(#mask-4)" cx="108" cy="314" r="6"></circle>
                        <circle id="Oval" fill="#0AD75F" mask="url(#mask-4)" cx="115" cy="317" r="8"></circle>
                        <path d="M268,409 C276.836556,409 284,416.163444 284,425 C284,433.836556 276.836556,441 268,441 C264.417005,441 261.109085,439.822263 258.442246,437.832796 C255.78462,436.654868 253.637433,436.066406 252,436.066406 C250.374582,436.066406 248.238661,436.646263 245.592238,437.805978 C242.919133,439.812193 239.59828,441 236,441 C227.163444,441 220,433.836556 220,425 C220,416.163444 227.163444,409 236,409 C239.773374,409 243.241665,410.306218 245.977369,412.49115 C248.059027,413.37408 250.06655,413.814941 252,413.814941 C253.945569,413.814941 255.959899,413.368536 258.042992,412.475726 C260.775994,410.299576 264.236231,409 268,409 Z" id="Combined-Shape" fill="#0036E6" opacity="0.600000024" mask="url(#mask-4)"></path>
                    </g>
                </g>
            </g>
        </g>
    </g>
</svg>