<?xml version="1.0" encoding="UTF-8"?>
<svg width="60px" height="60px" viewBox="0 0 60 60" version="1.1" xmlns="http://www.w3.org/2000/svg" xmlns:xlink="http://www.w3.org/1999/xlink">
    <!-- Generator: Sketch 64 (93537) - https://sketch.com -->
    <title>Combined Shape</title>
    <desc>Created with Sketch.</desc>
    <g id="Main-Feature-Pages" stroke="none" stroke-width="1" fill="none" fill-rule="evenodd">
        <g id="overview" transform="translate(-706.000000, -795.000000)" fill="#FFFFFF">
            <g id="Group-11" transform="translate(355.000000, 795.000000)">
                <g id="Group-13" transform="translate(159.000000, 0.000000)">
                    <path d="M222,0 C238.568542,0 252,13.4314575 252,30 C252,46.5685425 238.568542,60 222,60 C205.431458,60 192,46.5685425 192,30 C192,13.4314575 205.431458,0 222,0 Z M234.947368,25.5157895 L230.589474,25.5157895 L230.589474,28.4210526 L233.494737,28.4210526 L233.494737,41.4947368 L220.421053,41.4947368 L220.421053,38.5894737 L217.515789,38.5894737 L217.515789,42.9473684 C217.515789,43.7496347 218.166155,44.4 218.968421,44.4 L218.968421,44.4 L234.947368,44.4 C235.749635,44.4 236.4,43.7496347 236.4,42.9473684 L236.4,42.9473684 L236.4,26.9684211 C236.4,26.1661548 235.749635,25.5157895 234.947368,25.5157895 L234.947368,25.5157895 Z M226.231579,16.8 L210.252632,16.8 C209.450365,16.8 208.8,17.4503653 208.8,18.2526316 L208.8,18.2526316 L208.8,34.2315789 C208.8,35.0338452 209.450365,35.6842105 210.252632,35.6842105 L210.252632,35.6842105 L226.231579,35.6842105 C227.033845,35.6842105 227.684211,35.0338452 227.684211,34.2315789 L227.684211,34.2315789 L227.684211,18.2526316 C227.684211,17.4503653 227.033845,16.8 226.231579,16.8 L226.231579,16.8 Z M224.778947,19.7052632 L224.778947,32.7789474 L211.705263,32.7789474 L211.705263,19.7052632 L224.778947,19.7052632 Z" id="Combined-Shape" stroke="#F95E86" stroke-width="0.5"></path>
                </g>
            </g>
        </g>
    </g>
</svg>
