<?xml version="1.0" encoding="UTF-8"?>
<svg width="60px" height="60px" viewBox="0 0 60 60" version="1.1" xmlns="http://www.w3.org/2000/svg" xmlns:xlink="http://www.w3.org/1999/xlink">
    <!-- Generator: Sketch 64 (93537) - https://sketch.com -->
    <title>Group 38</title>
    <desc>Created with Sketch.</desc>
    <g id="Main-Feature-Pages" stroke="none" stroke-width="1" fill="none" fill-rule="evenodd">
        <g id="overview" transform="translate(-610.000000, -795.000000)" fill="#FFFFFF">
            <g id="Group-11" transform="translate(355.000000, 795.000000)">
                <g id="Group-13" transform="translate(159.000000, 0.000000)">
                    <g id="Group-38" transform="translate(96.000000, 0.000000)">
                        <path d="M30,0 C46.5685425,0 60,13.4314575 60,30 C60,46.5685425 46.5685425,60 30,60 C13.4314575,60 0,46.5685425 0,30 C0,13.4314575 13.4314575,0 30,0 Z M35.76,21.6 L17.04,21.6 C16.24471,21.6 15.6,22.24471 15.6,23.04 L15.6,23.04 L15.6,36.96 C15.6,37.75529 16.24471,38.4 17.04,38.4 L17.04,38.4 L35.76,38.4 C36.55529,38.4 37.2,37.75529 37.2,36.96 L37.2,36.96 L37.2,35.6 L42.6851477,36.6665565 C42.7757056,36.684165 42.8677461,36.6930303 42.96,36.6930303 C43.75529,36.6930303 44.4,36.0483204 44.4,35.2530303 L44.4,35.2530303 L44.4,24.7469697 C44.4,24.6547157 44.3911346,24.5626752 44.3735262,24.4721174 C44.2217294,23.6914484 43.4658166,23.1816468 42.6851477,23.3334435 L42.6851477,23.3334435 L37.2,24.4 L37.2,23.04 C37.2,22.24471 36.55529,21.6 35.76,21.6 L35.76,21.6 Z" id="Combined-Shape"></path>
                        <path d="M35.76,23.04 L17.04,23.04 L17.04,36.96 L35.76,36.96 L35.76,33.8610447 L42.9599325,35.2273198 L42.9342091,24.7519846 L35.76,26.1469697 L35.76,23.04 Z" id="Combined-Shape" stroke="#F95E86" stroke-width="2.88"></path>
                    </g>
                </g>
            </g>
        </g>
    </g>
</svg>